<?xml version="1.0" standalone="no"?>
<!DOCTYPE svg PUBLIC "-//W3C//DTD SVG 20010904//EN"
 "http://www.w3.org/TR/2001/REC-SVG-20010904/DTD/svg10.dtd">
<svg version="1.0" xmlns="http://www.w3.org/2000/svg"
 width="1026.000000pt" height="1026.000000pt" viewBox="0 0 1026.000000 1026.000000"
 preserveAspectRatio="xMidYMid meet">
<metadata>
Created by potrace 1.11, written by Peter Selinger 2001-2013
</metadata>
<g transform="translate(0.000000,1026.000000) scale(0.100000,-0.100000)"
fill="#000000" stroke="none">
<path d="M1630 5127 l0 -5124 2203 2 c1211 1 2213 5 2227 9 14 4 43 9 65 11
97 12 186 26 225 35 19 5 51 12 70 15 19 3 58 12 85 20 28 8 61 16 75 19 14 2
38 9 53 15 15 6 31 10 35 9 4 -1 14 2 22 5 8 3 58 20 110 38 52 18 100 35 105
39 6 4 28 13 50 20 53 17 274 124 350 169 33 20 73 42 88 50 15 8 27 18 27 23
0 4 6 8 13 8 6 0 23 9 37 21 14 11 48 35 75 54 28 18 59 42 70 52 11 10 43 36
70 58 106 84 302 292 394 416 22 30 44 59 49 65 5 5 15 21 22 35 7 13 16 26
19 29 33 26 188 323 245 470 21 52 41 104 45 115 17 44 45 134 63 205 10 41
21 82 23 90 9 34 44 219 49 265 4 28 9 64 11 80 16 102 19 178 19 415 0 146
-3 290 -8 320 -4 30 -9 73 -11 95 -7 71 -14 119 -21 155 -4 19 -8 42 -9 50 -7
46 -45 208 -63 268 -6 17 -8 32 -5 32 3 0 1 6 -4 13 -6 6 -14 26 -18 42 -10
37 -9 35 -22 65 -6 14 -20 51 -32 83 -66 180 -237 473 -356 614 -5 6 -28 33
-50 60 -73 89 -366 373 -385 373 -4 0 -10 4 -12 8 -7 19 -270 212 -288 212 -6
0 -10 4 -10 8 0 5 -10 14 -22 21 -13 6 -35 19 -50 29 -72 46 -150 92 -159 92
-5 0 -9 4 -9 8 0 4 -12 13 -27 19 -16 7 -55 27 -88 46 -53 31 -382 199 -395
202 -9 3 -53 22 -125 56 -38 18 -72 33 -75 34 -13 5 -103 45 -255 115 -118 54
-388 191 -417 211 -14 11 -29 19 -32 19 -9 0 -175 99 -241 144 -243 164 -406
312 -532 482 -29 40 -53 76 -53 82 0 6 -4 12 -8 14 -13 4 -84 143 -111 213
-13 33 -27 69 -31 80 -12 29 -39 134 -46 179 -3 21 -8 48 -10 60 -19 90 -26
414 -11 504 4 23 10 61 13 85 7 48 56 225 79 283 26 63 99 208 112 222 7 7 13
18 13 23 0 5 9 19 20 31 11 12 20 28 20 35 0 7 5 13 10 13 6 0 13 7 17 16 7
18 17 29 123 139 41 42 95 91 120 108 25 17 47 34 50 38 10 13 137 86 220 126
91 43 160 67 310 109 52 14 118 32 145 39 71 20 99 24 195 32 150 12 445 6
565 -12 17 -2 50 -6 75 -9 25 -3 54 -7 65 -10 11 -2 42 -7 69 -10 27 -4 53 -9
56 -11 4 -3 22 -7 41 -9 28 -4 79 -17 204 -50 106 -28 305 -100 430 -155 64
-29 267 -131 280 -141 13 -11 84 -50 90 -50 3 0 19 49 31 95 3 14 70 235 101
335 15 47 28 90 29 96 2 12 38 132 87 289 17 55 32 105 33 110 1 6 7 30 15 55
19 67 19 71 1 77 -9 4 -19 9 -22 12 -25 28 -369 191 -500 236 -3 1 -12 4 -20
8 -8 3 -46 15 -85 27 -38 12 -77 24 -85 27 -8 3 -21 7 -29 9 -13 2 -53 13 -71
19 -3 1 -23 5 -45 10 -56 13 -55 12 -57 15 -2 1 -10 3 -18 5 -104 21 -181 36
-205 40 -16 2 -39 7 -50 9 -17 3 -82 12 -160 22 -11 1 -49 5 -85 8 -36 4 -83
8 -105 11 -133 15 -749 20 -2792 23 l-2293 2 0 -5123z m2320 3982 c0 -3 -10
-21 -23 -40 -96 -144 -168 -274 -234 -429 -45 -104 -87 -217 -86 -230 1 -3 -3
-12 -7 -20 -8 -14 -54 -182 -65 -235 -3 -11 -8 -33 -11 -50 -4 -16 -8 -39 -9
-50 -1 -11 -5 -36 -8 -55 -12 -63 -18 -113 -32 -265 -9 -94 -4 -412 9 -520 2
-22 7 -65 11 -95 17 -151 75 -382 138 -550 17 -47 31 -88 29 -92 -1 -5 2 -8 7
-8 5 0 12 -10 16 -22 4 -13 8 -25 9 -28 1 -3 8 -16 16 -30 8 -14 15 -30 16
-36 3 -17 91 -170 145 -253 27 -41 49 -77 49 -82 0 -4 4 -9 8 -11 5 -1 26 -27
48 -57 21 -30 47 -64 59 -76 31 -34 110 -127 113 -134 1 -3 -325 -6 -725 -6
l-728 0 -3 1687 -2 1687 22 3 c43 6 1238 3 1238 -3z m2265 -4588 c168 -89 181
-97 220 -121 17 -11 46 -28 65 -39 37 -20 277 -187 296 -205 6 -6 37 -33 70
-61 92 -78 190 -180 259 -270 11 -14 25 -31 30 -38 70 -83 209 -362 229 -459
3 -13 13 -50 22 -83 9 -33 18 -69 19 -80 2 -11 6 -36 10 -55 6 -41 13 -94 21
-170 7 -69 7 -336 0 -387 -3 -21 -8 -60 -11 -88 -3 -27 -7 -61 -10 -75 -3 -14
-8 -38 -10 -55 -11 -60 -57 -212 -87 -285 -29 -71 -104 -223 -120 -245 -4 -5
-37 -50 -74 -100 -210 -288 -536 -495 -935 -594 -119 -29 -236 -48 -292 -47
-26 1 -47 -3 -47 -7 0 -5 -5 -5 -11 -1 -6 3 -77 6 -158 5 -174 -1 -206 -1
-289 2 -35 2 -66 -1 -68 -5 -3 -5 -10 -5 -16 -2 -6 4 -76 6 -157 5 -195 -1
-220 -1 -264 3 -20 2 -40 0 -43 -5 -3 -5 -10 -6 -16 -3 -9 6 -158 9 -183 4 -5
-1 -13 -2 -17 -1 -55 7 -99 7 -104 0 -3 -5 -10 -6 -16 -3 -6 4 -41 6 -77 5
-95 -2 -141 -1 -184 3 -20 2 -40 0 -43 -5 -3 -5 -10 -6 -16 -3 -9 6 -158 9
-183 4 -5 -1 -13 -2 -17 -1 -55 7 -99 7 -104 0 -3 -5 -10 -6 -16 -3 -6 4 -65
6 -132 5 -140 -1 -178 -1 -264 2 -35 2 -66 -1 -68 -5 -3 -5 -10 -5 -16 -2 -6
4 -51 6 -102 5 -112 -1 -110 -1 -223 2 -51 1 -93 -2 -93 -6 0 -5 -5 -5 -11 -1
-7 4 -74 7 -150 7 l-139 -1 0 1768 0 1767 1693 -1 1692 -1 140 -74z"/>
</g>
</svg>
