<?xml version="1.0" encoding="utf-8"?>
<!-- Generator: Adobe Illustrator 16.0.0, SVG Export Plug-In . SVG Version: 6.00 Build 0)  -->
<!DOCTYPE svg PUBLIC "-//W3C//DTD SVG 1.1//EN" "http://www.w3.org/Graphics/SVG/1.1/DTD/svg11.dtd">
<svg version="1.1" id="Layer_1" xmlns="http://www.w3.org/2000/svg" xmlns:xlink="http://www.w3.org/1999/xlink" x="0px" y="0px"
	 width="350.32px" height="513.142px" viewBox="0 0 350.32 513.142" enable-background="new 0 0 350.32 513.142"
	 xml:space="preserve">
<path d="M89,297.95V298h-0.8C88.47,297.99,88.74,297.97,89,297.95z"/>
<path fill="#D9D9DD" d="M237.5,224.44c-6.05-2.64-11.77-5.23-17.16-7.82l-3.94-1.91c-46.09-22.74-66.73-44.97-66.77-85.77
	c-0.03-28.63,16.24-62.54,57.38-71.38c0.3-0.16,0.64-0.28,0.99-0.37c0.49-0.23,1.05-0.37,1.68-0.42c0.14-0.05,0.29-0.09,0.44-0.12
	c0-0.01,0-0.01,0.01-0.01c5.44-2.2,11.46-2.5,17.94-2.72c0.04,0,0.08,0.08,0.12,0.08h0.01c0.21,0,0.41-0.11,0.62-0.12
	c0-0.05,2.68-0.12,4.2-0.12c39.98-0.02,69.2,14.7,83.62,23.53l15.69-52.5c-19.69-12.53-52.09-24.32-97.3-24.26
	c-2.14,0-4.03,0.04-6.03,0.12V0.567c-0.11,0.006-0.218,0.016-0.333,0.016c-0.468,0-0.889-0.069-1.288-0.168
	c-0.324-0.002-0.629-0.033-0.92-0.083c-0.015,0-0.028,0.002-0.042,0.002c-0.476,0-0.901-0.074-1.305-0.176
	c-0.065,0.002-0.128,0.009-0.195,0.009c-0.173,0-0.338-0.012-0.499-0.029c-0.188,0.019-0.383,0.029-0.584,0.029
	c-0.358,0-0.688-0.043-1.006-0.103c-0.135,0.009-0.27,0.02-0.411,0.02c-0.333,0-0.646-0.033-0.945-0.083H0v513h212.45
	c0.65,0,1.3,0.19,1.92,0.13c91.63-7.55,136.02-70.5,135.95-142.66C350.27,297.33,312.21,256.85,237.5,224.44z M53,57h63.48
	c-15.8,22-24.52,49.18-24.49,79.58c0.02,36.84,12.3,65.42,34.39,89.42H53V57z M215.85,460H53V283h168.89
	c49.94,24.01,70.07,49.94,70.11,92.87C292.05,421.3,264.27,454.08,215.85,460z"/>
</svg>
